<?xml version="1.0" encoding="UTF-8" standalone="no"?>
<!-- Created with Inkscape (http://www.inkscape.org/) -->

<svg
   xmlns:dc="http://purl.org/dc/elements/1.1/"
   xmlns:cc="http://creativecommons.org/ns#"
   xmlns:rdf="http://www.w3.org/1999/02/22-rdf-syntax-ns#"
   xmlns:svg="http://www.w3.org/2000/svg"
   xmlns="http://www.w3.org/2000/svg"
   xmlns:sodipodi="http://sodipodi.sourceforge.net/DTD/sodipodi-0.dtd"
   xmlns:inkscape="http://www.inkscape.org/namespaces/inkscape"
   version="1.1"
   id="svg2"
   xml:space="preserve"
   width="158.01067"
   height="151.11546"
   viewBox="0 0 158.01066 151.11546"
   sodipodi:docname="logo_g.svg"
   inkscape:version="0.92.4 (unknown)"><metadata
     id="metadata8"><rdf:RDF><cc:Work
         rdf:about=""><dc:format>image/svg+xml</dc:format><dc:type
           rdf:resource="http://purl.org/dc/dcmitype/StillImage" /><dc:title></dc:title></cc:Work></rdf:RDF></metadata><defs
     id="defs6"><clipPath
       clipPathUnits="userSpaceOnUse"
       id="clipPath18"><path
         d="M 0,595.276 H 841.89 V 0 H 0 Z"
         id="path16"
         inkscape:connector-curvature="0" /></clipPath><clipPath
       clipPathUnits="userSpaceOnUse"
       id="clipPath90"><path
         d="M 0,595.276 H 841.89 V 0 H 0 Z"
         id="path88"
         inkscape:connector-curvature="0" /></clipPath></defs><sodipodi:namedview
     pagecolor="#ffffff"
     bordercolor="#666666"
     borderopacity="1"
     objecttolerance="10"
     gridtolerance="10"
     guidetolerance="10"
     inkscape:pageopacity="0"
     inkscape:pageshadow="2"
     inkscape:window-width="960"
     inkscape:window-height="1024"
     id="namedview4"
     showgrid="false"
     inkscape:pagecheckerboard="true"
     inkscape:zoom="1.682015"
     inkscape:cx="69.220504"
     inkscape:cy="42.22886"
     inkscape:window-x="960"
     inkscape:window-y="30"
     inkscape:window-maximized="0"
     inkscape:current-layer="g10"
     fit-margin-top="0"
     fit-margin-left="0"
     fit-margin-right="0"
     fit-margin-bottom="0" /><g
     id="g10"
     inkscape:groupmode="layer"
     inkscape:label="name_logo"
     transform="matrix(1.3333333,0,0,-1.3333333,-147.34,475.29652)"><g
       id="g12"><g
         id="g14"
         clip-path="url(#clipPath18)"
         style="image-rendering:auto"><g
           id="g20"
           transform="translate(338.7754,294.4182)"><path
             d="m 0,0 v -42.318 c 0,-2.653 -1.677,-5.03 -4.181,-5.902 -5.986,-2.086 -11.609,-3.662 -16.869,-4.731 -6.47,-1.317 -12.497,-1.974 -18.089,-1.974 -7.674,0 -14.856,1.286 -21.542,3.86 -6.688,2.571 -12.526,6.292 -17.513,11.164 -4.991,4.872 -8.937,10.809 -11.84,17.816 -2.906,7.008 -4.359,14.944 -4.359,23.811 0,8.649 1.424,16.53 4.277,23.648 2.848,7.114 6.742,13.19 11.675,18.227 4.933,5.036 10.771,8.92 17.513,11.658 6.742,2.736 14.004,4.105 21.789,4.105 7.344,0 14.307,-1.083 20.885,-3.248 4.781,-1.572 9.243,-3.402 13.387,-5.489 2.659,-1.34 4.038,-4.339 3.271,-7.216 l -0.038,-0.145 c -1.039,-3.905 -5.439,-5.788 -9.005,-3.885 -2.854,1.524 -5.885,2.896 -9.095,4.115 -5.92,2.245 -12.497,3.371 -19.734,3.371 -5.591,0 -10.663,-1.126 -15.211,-3.371 -4.55,-2.249 -8.415,-5.374 -11.593,-9.374 -3.181,-4.003 -5.648,-8.715 -7.4,-14.143 -1.755,-5.426 -2.632,-11.264 -2.632,-17.512 0,-6.8 0.931,-12.965 2.796,-18.501 1.863,-5.537 4.494,-10.252 7.894,-14.142 3.397,-3.893 7.426,-6.907 12.087,-9.045 4.658,-2.137 9.727,-3.206 15.211,-3.206 3.178,0 6.578,0.355 10.195,1.069 2.092,0.412 4.202,0.887 6.33,1.427 2.762,0.702 4.688,3.209 4.688,6.059 v 21.373 c 0,3.451 -2.798,6.249 -6.25,6.249 h -15.096 c -5.929,0 -8.526,7.483 -3.872,11.155 1.103,0.871 2.467,1.344 3.872,1.344 h 32.2 C -2.798,6.249 0,3.451 0,0"
             style="fill:#a7e2d2;fill-opacity:1;fill-rule:nonzero;stroke:none"
             id="path22"
             inkscape:connector-curvature="0" /></g><g
           id="g24"
           transform="translate(338.7754,294.4182)"><path
             d="m 0,0 v -42.318 c 0,-2.653 -1.677,-5.03 -4.181,-5.902 -5.986,-2.086 -11.609,-3.662 -16.869,-4.731 -6.47,-1.317 -12.497,-1.974 -18.089,-1.974 -7.674,0 -14.856,1.286 -21.542,3.86 -6.688,2.571 -12.526,6.292 -17.513,11.164 -4.991,4.872 -8.937,10.809 -11.84,17.816 -2.906,7.008 -4.359,14.944 -4.359,23.811 0,8.649 1.424,16.53 4.277,23.648 2.848,7.114 6.742,13.19 11.675,18.227 4.933,5.036 10.771,8.92 17.513,11.658 6.742,2.736 14.004,4.105 21.789,4.105 7.344,0 14.307,-1.083 20.885,-3.248 4.781,-1.572 9.243,-3.402 13.387,-5.489 2.659,-1.34 4.038,-4.339 3.271,-7.216 l -0.038,-0.145 c -1.039,-3.905 -5.439,-5.788 -9.005,-3.885 -2.854,1.524 -5.885,2.896 -9.095,4.115 -5.92,2.245 -12.497,3.371 -19.734,3.371 -5.591,0 -10.663,-1.126 -15.211,-3.371 -4.55,-2.249 -8.415,-5.374 -11.593,-9.374 -3.181,-4.003 -5.648,-8.715 -7.4,-14.143 -1.755,-5.426 -2.632,-11.264 -2.632,-17.512 0,-6.8 0.931,-12.965 2.796,-18.501 1.863,-5.537 4.494,-10.252 7.894,-14.142 3.397,-3.893 7.426,-6.907 12.087,-9.045 4.658,-2.137 9.727,-3.206 15.211,-3.206 3.178,0 6.578,0.355 10.195,1.069 2.092,0.412 4.202,0.887 6.33,1.427 2.762,0.702 4.688,3.209 4.688,6.059 v 21.373 c 0,3.451 -2.798,6.249 -6.25,6.249 h -15.096 c -5.929,0 -8.526,7.483 -3.872,11.155 1.103,0.871 2.467,1.344 3.872,1.344 h 32.2 C -2.798,6.249 0,3.451 0,0 Z"
             style="fill:none;stroke:#a7e2d2;stroke-width:5;stroke-linecap:butt;stroke-linejoin:miter;stroke-miterlimit:10;stroke-dasharray:none;stroke-opacity:1"
             id="path26"
             inkscape:connector-curvature="0" /></g><g
           id="g28"
           transform="translate(361.4727,337.1008)"><path
             d="m 0,0 h 11.236 c 2.232,0 4.041,-1.81 4.041,-4.041 v -57.087 c 0,-6.726 1.375,-11.835 4.126,-15.332 2.748,-3.498 6.406,-5.245 10.968,-5.245 3.353,0 6.34,0.469 8.956,1.412 2.616,0.94 4.962,2.151 7.044,3.631 2.078,1.478 3.924,3.126 5.532,4.944 1.266,1.425 2.489,2.83 3.67,4.215 0.623,0.731 0.959,1.657 0.959,2.617 v 60.845 c 0,2.231 1.81,4.041 4.041,4.041 h 11.238 c 2.232,0 4.042,-1.81 4.042,-4.041 v -87.308 c 0,-2.231 -1.81,-4.041 -4.042,-4.041 H 60.573 c -2.231,0 -4.041,1.81 -4.041,4.041 0,3.291 -3.716,5.2 -6.388,3.28 -2.338,-1.679 -4.871,-3.233 -7.597,-4.66 -5.434,-2.846 -10.968,-4.27 -16.603,-4.27 -4.025,0 -7.848,0.673 -11.47,2.013 -3.623,1.34 -6.812,3.452 -9.56,6.34 -2.75,2.881 -4.93,6.57 -6.541,11.067 -1.608,4.493 -2.414,9.961 -2.414,16.4 V -4.041 C -4.041,-1.81 -2.231,0 0,0"
             style="fill:#a7e2d2;fill-opacity:1;fill-rule:nonzero;stroke:none"
             id="path30"
             inkscape:connector-curvature="0" /></g><g
           id="g32"
           transform="translate(361.4727,337.1008)"><path
             d="m 0,0 h 11.236 c 2.232,0 4.041,-1.81 4.041,-4.041 v -57.087 c 0,-6.726 1.375,-11.835 4.126,-15.332 2.748,-3.498 6.406,-5.245 10.968,-5.245 3.353,0 6.34,0.469 8.956,1.412 2.616,0.94 4.962,2.151 7.044,3.631 2.078,1.478 3.924,3.126 5.532,4.944 1.266,1.425 2.489,2.83 3.67,4.215 0.623,0.731 0.959,1.657 0.959,2.617 v 60.845 c 0,2.231 1.81,4.041 4.041,4.041 h 11.238 c 2.232,0 4.042,-1.81 4.042,-4.041 v -87.308 c 0,-2.231 -1.81,-4.041 -4.042,-4.041 H 60.573 c -2.231,0 -4.041,1.81 -4.041,4.041 0,3.291 -3.716,5.2 -6.388,3.28 -2.338,-1.679 -4.871,-3.233 -7.597,-4.66 -5.434,-2.846 -10.968,-4.27 -16.603,-4.27 -4.025,0 -7.848,0.673 -11.47,2.013 -3.623,1.34 -6.812,3.452 -9.56,6.34 -2.75,2.881 -4.93,6.57 -6.541,11.067 -1.608,4.493 -2.414,9.961 -2.414,16.4 V -4.041 C -4.041,-1.81 -2.231,0 0,0 Z"
             style="fill:none;stroke:#a7e2d2;stroke-width:2;stroke-linecap:butt;stroke-linejoin:miter;stroke-miterlimit:10;stroke-dasharray:none;stroke-opacity:1"
             id="path34"
             inkscape:connector-curvature="0" /></g><g
           id="g36"
           transform="translate(499.2168,324.5129)"><path
             d="m 0,0 c -2.806,0 -5.582,-0.468 -8.32,-1.396 -2.74,-0.932 -5.279,-2.395 -7.618,-4.39 -2.337,-1.996 -4.374,-4.624 -6.11,-7.884 -0.81,-1.518 -1.504,-3.203 -2.082,-5.054 -1.086,-3.484 1.578,-7.017 5.228,-7.017 h 33.691 c 2.963,0 5.444,2.364 5.452,5.327 v 0.06 c 0,2.395 -0.368,4.789 -1.102,7.184 -0.737,2.396 -1.938,4.555 -3.608,6.485 -1.673,1.927 -3.776,3.524 -6.315,4.789 C 6.68,-0.633 3.604,0 0,0 m -19.983,-39.112 c -3.499,0 -6.077,-3.249 -5.323,-6.667 0.605,-2.737 1.455,-5.238 2.553,-7.502 1.934,-3.991 4.304,-7.318 7.106,-9.977 2.799,-2.663 5.902,-4.625 9.307,-5.888 3.402,-1.266 6.704,-1.895 9.906,-1.895 4.269,0 9.139,0.864 14.612,2.595 4.021,1.27 8.187,2.9 12.499,4.892 2.657,1.228 5.812,0.099 7.125,-2.518 l 0.954,-1.901 c 1.36,-2.713 0.259,-6.041 -2.48,-7.347 -4.503,-2.149 -9.182,-4.048 -14.039,-5.7 -6.653,-2.259 -13.239,-3.391 -19.755,-3.391 -7.053,0 -13.54,1.065 -19.457,3.192 -5.921,2.127 -11.009,5.255 -15.267,9.379 -4.259,4.122 -7.582,9.21 -9.976,15.267 -2.395,6.051 -3.594,13.002 -3.594,20.852 0,7.715 1.13,14.634 3.394,20.754 2.261,6.118 5.418,11.277 9.478,15.466 4.056,4.191 8.947,7.384 14.669,9.579 5.716,2.194 12.037,3.293 18.957,3.293 7.982,0 14.533,-1.531 19.656,-4.59 5.121,-3.061 9.179,-7.084 12.172,-12.074 2.994,-4.987 5.056,-10.609 6.188,-16.862 0.785,-4.355 1.299,-8.74 1.538,-13.158 0.17,-3.142 -2.298,-5.799 -5.445,-5.799 z"
             style="fill:#a7e2d2;fill-opacity:1;fill-rule:nonzero;stroke:none"
             id="path38"
             inkscape:connector-curvature="0" /></g><g
           id="g40"
           transform="translate(499.2168,324.5129)"><path
             d="m 0,0 c -2.806,0 -5.582,-0.468 -8.32,-1.396 -2.74,-0.932 -5.279,-2.395 -7.618,-4.39 -2.337,-1.996 -4.374,-4.624 -6.11,-7.884 -0.81,-1.518 -1.504,-3.203 -2.082,-5.054 -1.086,-3.484 1.578,-7.017 5.228,-7.017 h 33.691 c 2.963,0 5.444,2.364 5.452,5.327 v 0.06 c 0,2.395 -0.368,4.789 -1.102,7.184 -0.737,2.396 -1.938,4.555 -3.608,6.485 -1.673,1.927 -3.776,3.524 -6.315,4.789 C 6.68,-0.633 3.604,0 0,0 Z m -19.983,-39.112 c -3.499,0 -6.077,-3.249 -5.323,-6.667 0.605,-2.737 1.455,-5.238 2.553,-7.502 1.934,-3.991 4.304,-7.318 7.106,-9.977 2.799,-2.663 5.902,-4.625 9.307,-5.888 3.402,-1.266 6.704,-1.895 9.906,-1.895 4.269,0 9.139,0.864 14.612,2.595 4.021,1.27 8.187,2.9 12.499,4.892 2.657,1.228 5.812,0.099 7.125,-2.518 l 0.954,-1.901 c 1.36,-2.713 0.259,-6.041 -2.48,-7.347 -4.503,-2.149 -9.182,-4.048 -14.039,-5.7 -6.653,-2.259 -13.239,-3.391 -19.755,-3.391 -7.053,0 -13.54,1.065 -19.457,3.192 -5.921,2.127 -11.009,5.255 -15.267,9.379 -4.259,4.122 -7.582,9.21 -9.976,15.267 -2.395,6.051 -3.594,13.002 -3.594,20.852 0,7.715 1.13,14.634 3.394,20.754 2.261,6.118 5.418,11.277 9.478,15.466 4.056,4.191 8.947,7.384 14.669,9.579 5.716,2.194 12.037,3.293 18.957,3.293 7.982,0 14.533,-1.531 19.656,-4.59 5.121,-3.061 9.179,-7.084 12.172,-12.074 2.994,-4.987 5.056,-10.609 6.188,-16.862 0.785,-4.355 1.299,-8.74 1.538,-13.158 0.17,-3.142 -2.298,-5.799 -5.445,-5.799 z"
             style="fill:none;stroke:#a7e2d2;stroke-width:2;stroke-linecap:butt;stroke-linejoin:miter;stroke-miterlimit:10;stroke-dasharray:none;stroke-opacity:1"
             id="path42"
             inkscape:connector-curvature="0" /></g><g
           id="g44"
           transform="translate(603.8926,337.884)"><path
             d="m 0,0 c 3.24,0 6.41,-0.339 9.517,-1.013 1.421,-0.309 2.728,-0.661 3.922,-1.054 2.187,-0.721 3.43,-3.025 2.899,-5.265 l -2.116,-8.924 c -0.698,-2.941 -4.023,-4.307 -6.642,-2.801 -2.604,1.499 -5.536,2.248 -8.796,2.248 -3.106,0 -5.907,-0.505 -8.404,-1.519 -2.498,-1.012 -4.828,-2.363 -6.986,-4.049 -2.162,-1.69 -4.12,-3.645 -5.873,-5.873 -1.456,-1.847 -2.865,-3.718 -4.226,-5.611 -0.547,-0.76 -0.836,-1.676 -0.836,-2.613 v -56.664 c 0,-2.469 -2.002,-4.47 -4.471,-4.47 h -10.5 c -2.469,0 -4.47,2.001 -4.47,4.47 V -5.89 c 0,2.47 2.001,4.472 4.47,4.472 h 10.5 c 2.469,0 4.471,-2.002 4.471,-4.472 0,-3.871 4.552,-5.875 7.462,-3.321 1.666,1.463 3.397,2.846 5.194,4.148 C -10.228,-1.69 -5.265,0 0,0"
             style="fill:#a7e2d2;fill-opacity:1;fill-rule:nonzero;stroke:none"
             id="path46"
             inkscape:connector-curvature="0" /></g><g
           id="g48"
           transform="translate(603.8926,337.884)"><path
             d="m 0,0 c 3.24,0 6.41,-0.339 9.517,-1.013 1.421,-0.309 2.728,-0.661 3.922,-1.054 2.187,-0.721 3.43,-3.025 2.899,-5.265 l -2.116,-8.924 c -0.698,-2.941 -4.023,-4.307 -6.642,-2.801 -2.604,1.499 -5.536,2.248 -8.796,2.248 -3.106,0 -5.907,-0.505 -8.404,-1.519 -2.498,-1.012 -4.828,-2.363 -6.986,-4.049 -2.162,-1.69 -4.12,-3.645 -5.873,-5.873 -1.456,-1.847 -2.865,-3.718 -4.226,-5.611 -0.547,-0.76 -0.836,-1.676 -0.836,-2.613 v -56.664 c 0,-2.469 -2.002,-4.47 -4.471,-4.47 h -10.5 c -2.469,0 -4.47,2.001 -4.47,4.47 V -5.89 c 0,2.47 2.001,4.472 4.47,4.472 h 10.5 c 2.469,0 4.471,-2.002 4.471,-4.472 0,-3.871 4.552,-5.875 7.462,-3.321 1.666,1.463 3.397,2.846 5.194,4.148 C -10.228,-1.69 -5.265,0 0,0 Z"
             style="fill:none;stroke:#a7e2d2;stroke-width:2;stroke-linecap:butt;stroke-linejoin:miter;stroke-miterlimit:10;stroke-dasharray:none;stroke-opacity:1"
             id="path50"
             inkscape:connector-curvature="0" /></g><g
           id="g52"
           transform="translate(677.7178,286.4133)"><path
             d="M 0,0 C 0,2.679 -2.325,4.792 -4.986,4.488 -8.479,4.09 -11.864,3.554 -15.143,2.881 c -4.819,-0.99 -9.075,-2.376 -12.768,-4.158 -3.696,-1.782 -6.666,-4.057 -8.907,-6.829 -2.246,-2.772 -3.367,-6.071 -3.367,-9.898 0,-4.488 1.485,-7.918 4.455,-10.294 2.968,-2.376 7.027,-3.563 12.173,-3.563 3.695,0 7.028,0.593 9.997,1.781 2.97,1.187 5.445,2.639 7.424,4.356 1.98,1.712 3.495,3.495 4.553,5.344 1.055,1.847 1.583,3.366 1.583,4.554 z M -3.874,16.68 C -1.651,16.996 0,18.9 0,21.146 v 0.044 c 0,4.62 -1.583,8.447 -4.75,11.483 -3.167,3.034 -8.117,4.552 -14.847,4.552 -3.167,0 -6.269,-0.395 -9.305,-1.187 -3.036,-0.792 -5.675,-1.717 -7.916,-2.771 -0.839,-0.377 -1.663,-0.767 -2.475,-1.17 -2.611,-1.299 -5.746,0.137 -6.422,2.974 l -1.544,6.487 c -0.581,2.44 0.936,4.897 3.382,5.449 2.132,0.48 4.286,0.915 6.464,1.305 3.168,0.658 6.631,1.219 10.392,1.682 3.761,0.461 7.356,0.694 10.789,0.694 4.751,0 9.27,-0.628 13.56,-1.882 4.286,-1.255 8.018,-3.202 11.185,-5.839 3.167,-2.642 5.707,-5.939 7.621,-9.898 1.912,-3.96 2.871,-8.71 2.871,-14.254 v -38.996 c 0,-3.434 1.152,-6.269 3.463,-8.512 1.385,-1.348 2.926,-2.337 4.62,-2.971 2.061,-0.77 3.206,-2.985 2.822,-5.152 l -0.707,-3.985 c -0.418,-2.354 -2.603,-3.969 -4.978,-3.697 -1.829,0.21 -3.502,0.561 -5.023,1.057 -2.641,0.857 -4.885,1.911 -6.73,3.167 -1.851,1.252 -3.334,2.604 -4.453,4.058 -0.012,0.015 -0.023,0.029 -0.035,0.044 -1.596,2.068 -4.586,2.411 -6.554,0.693 -0.239,-0.208 -0.484,-0.42 -0.738,-0.638 -1.913,-1.651 -4.255,-3.236 -7.027,-4.751 -2.77,-1.519 -5.971,-2.806 -9.601,-3.861 -3.631,-1.053 -7.753,-1.583 -12.371,-1.583 -9.373,0 -16.727,2.144 -22.072,6.434 -5.346,4.286 -8.018,10.591 -8.018,18.904 0,7.391 1.782,13.395 5.345,18.015 3.564,4.617 8.018,8.245 13.362,10.888 5.345,2.637 11.086,4.552 17.222,5.74 6.138,1.187 11.779,2.109 16.926,2.772 z"
             style="fill:#a7e2d2;fill-opacity:1;fill-rule:nonzero;stroke:none"
             id="path54"
             inkscape:connector-curvature="0" /></g><g
           id="g56"
           transform="translate(677.7178,286.4133)"><path
             d="M 0,0 C 0,2.679 -2.325,4.792 -4.986,4.488 -8.479,4.09 -11.864,3.554 -15.143,2.881 c -4.819,-0.99 -9.075,-2.376 -12.768,-4.158 -3.696,-1.782 -6.666,-4.057 -8.907,-6.829 -2.246,-2.772 -3.367,-6.071 -3.367,-9.898 0,-4.488 1.485,-7.918 4.455,-10.294 2.968,-2.376 7.027,-3.563 12.173,-3.563 3.695,0 7.028,0.593 9.997,1.781 2.97,1.187 5.445,2.639 7.424,4.356 1.98,1.712 3.495,3.495 4.553,5.344 1.055,1.847 1.583,3.366 1.583,4.554 z M -3.874,16.68 C -1.651,16.996 0,18.9 0,21.146 v 0.044 c 0,4.62 -1.583,8.447 -4.75,11.483 -3.167,3.034 -8.117,4.552 -14.847,4.552 -3.167,0 -6.269,-0.395 -9.305,-1.187 -3.036,-0.792 -5.675,-1.717 -7.916,-2.771 -0.839,-0.377 -1.663,-0.767 -2.475,-1.17 -2.611,-1.299 -5.746,0.137 -6.422,2.974 l -1.544,6.487 c -0.581,2.44 0.936,4.897 3.382,5.449 2.132,0.48 4.286,0.915 6.464,1.305 3.168,0.658 6.631,1.219 10.392,1.682 3.761,0.461 7.356,0.694 10.789,0.694 4.751,0 9.27,-0.628 13.56,-1.882 4.286,-1.255 8.018,-3.202 11.185,-5.839 3.167,-2.642 5.707,-5.939 7.621,-9.898 1.912,-3.96 2.871,-8.71 2.871,-14.254 v -38.996 c 0,-3.434 1.152,-6.269 3.463,-8.512 1.385,-1.348 2.926,-2.337 4.62,-2.971 2.061,-0.77 3.206,-2.985 2.822,-5.152 l -0.707,-3.985 c -0.418,-2.354 -2.603,-3.969 -4.978,-3.697 -1.829,0.21 -3.502,0.561 -5.023,1.057 -2.641,0.857 -4.885,1.911 -6.73,3.167 -1.851,1.252 -3.334,2.604 -4.453,4.058 -0.012,0.015 -0.023,0.029 -0.035,0.044 -1.596,2.068 -4.586,2.411 -6.554,0.693 -0.239,-0.208 -0.484,-0.42 -0.738,-0.638 -1.913,-1.651 -4.255,-3.236 -7.027,-4.751 -2.77,-1.519 -5.971,-2.806 -9.601,-3.861 -3.631,-1.053 -7.753,-1.583 -12.371,-1.583 -9.373,0 -16.727,2.144 -22.072,6.434 -5.346,4.286 -8.018,10.591 -8.018,18.904 0,7.391 1.782,13.395 5.345,18.015 3.564,4.617 8.018,8.245 13.362,10.888 5.345,2.637 11.086,4.552 17.222,5.74 6.138,1.187 11.779,2.109 16.926,2.772 z"
             style="fill:none;stroke:#a7e2d2;stroke-width:2;stroke-linecap:butt;stroke-linejoin:miter;stroke-miterlimit:10;stroke-dasharray:none;stroke-opacity:1"
             id="path58"
             inkscape:connector-curvature="0" /></g></g></g><g
       id="g894"
       style="stroke:#4d4d4d;stroke-opacity:1"><g
         transform="translate(148.5059,246.4269)"
         id="g60"
         style="stroke:#4d4d4d;stroke-opacity:1"><path
           inkscape:connector-curvature="0"
           id="path62"
           style="fill:none;stroke:#4d4d4d;stroke-width:4;stroke-linecap:butt;stroke-linejoin:miter;stroke-miterlimit:10;stroke-dasharray:none;stroke-opacity:1"
           d="M 0,0 -8.262,27.732" /></g><g
         transform="translate(165.2422,246.2932)"
         id="g64"
         style="stroke:#4d4d4d;stroke-opacity:1"><path
           inkscape:connector-curvature="0"
           id="path66"
           style="fill:none;stroke:#4d4d4d;stroke-width:4;stroke-linecap:butt;stroke-linejoin:miter;stroke-miterlimit:10;stroke-dasharray:none;stroke-opacity:1"
           d="M 0,0 -3.013,28.137" /></g><g
         transform="translate(178.709,246.4269)"
         id="g68"
         style="stroke:#4d4d4d;stroke-opacity:1"><path
           inkscape:connector-curvature="0"
           id="path70"
           style="fill:none;stroke:#4d4d4d;stroke-width:4;stroke-linecap:butt;stroke-linejoin:miter;stroke-miterlimit:10;stroke-dasharray:none;stroke-opacity:1"
           d="M 0,0 3.013,28.137" /></g><g
         transform="translate(193.3721,245.8742)"
         id="g72"
         style="stroke:#4d4d4d;stroke-opacity:1"><path
           inkscape:connector-curvature="0"
           id="path74"
           style="fill:none;stroke:#4d4d4d;stroke-width:4;stroke-linecap:butt;stroke-linejoin:miter;stroke-miterlimit:10;stroke-dasharray:none;stroke-opacity:1"
           d="M 0,0 8.262,27.732" /></g><g
         transform="translate(132.0996,248.0578)"
         id="g76"
         style="stroke:#4d4d4d;stroke-opacity:1"><path
           inkscape:connector-curvature="0"
           id="path78"
           style="fill:none;stroke:#4d4d4d;stroke-width:4;stroke-linecap:butt;stroke-linejoin:miter;stroke-miterlimit:10;stroke-dasharray:none;stroke-opacity:1"
           d="M 0,0 -8.417,33.363" /></g><g
         transform="translate(123.8379,280.8068)"
         id="g80"
         style="stroke:#4d4d4d;stroke-opacity:1"><path
           inkscape:connector-curvature="0"
           id="path82"
           style="fill:none;stroke:#4d4d4d;stroke-width:4;stroke-linecap:butt;stroke-linejoin:miter;stroke-miterlimit:10;stroke-dasharray:none;stroke-opacity:1;fill-opacity:1"
           d="M 0,0 -5.983,29.329 97.824,31.011 84.999,-35.671 h -76 l -0.737,2.922" /></g></g><g
       id="g84"
       style="fill:#4d4d4d;fill-opacity:1;stroke:none;stroke-opacity:1"><g
         id="g86"
         clip-path="url(#clipPath90)"
         style="fill:#4d4d4d;fill-opacity:1;stroke:none;stroke-opacity:1"><g
           id="g92"
           transform="translate(229,302.4094)"
           style="fill:#4d4d4d;fill-opacity:1;stroke:none;stroke-opacity:1"><path
             d="M 0,0 C 0.004,0.005 0.013,0.014 0.013,0.014 H -0.002 C -1.581,12.8 -6.972,23.557 -16.201,33.383 l -2.721,2.896 c -22.269,23.712 -58.377,23.712 -80.647,0 l -2.721,-2.896 c -9.239,-9.838 -14.633,-20.608 -16.205,-33.413 0,0 15.014,-12.034 24.012,-9.465 8.997,2.568 19.72,9.416 19.72,9.416 0,0 15.938,-9.697 20.437,-8.967 4.49,0.729 19.998,8.98 20.065,9.016 h 0.006 c 0.064,-0.036 16.634,-9.429 20.781,-9.759 4.001,-0.318 12.801,9.065 13.446,9.759 H 0.005 C 0.003,-0.02 0.002,-0.01 0,0"
             style="fill:#4d4d4d;fill-opacity:1;fill-rule:nonzero;stroke:none;stroke-opacity:1"
             id="path94"
             inkscape:connector-curvature="0" /></g></g></g></g></svg>